<svg width="24" height="24" viewBox="0 0 24 24" fill="none" xmlns="http://www.w3.org/2000/svg">
<g id="Search">
<path id="Vector" d="M20.74 20.086L16.985 16.331C18.3626 14.7948 19.0883 12.7829 19.0085 10.721C18.9287 8.6592 18.0497 6.70933 16.5576 5.28417C15.0655 3.85901 13.0773 3.07042 11.014 3.08533C8.95072 3.10024 6.97417 3.91747 5.50281 5.36404C4.03144 6.81062 3.18072 8.77298 3.13075 10.8357C3.08078 12.8985 3.83546 14.8998 5.23506 16.4159C6.63465 17.932 8.5693 18.844 10.6295 18.9588C12.6896 19.0736 14.7136 18.3822 16.273 17.031L20.033 20.791C20.1273 20.8821 20.2536 20.9325 20.3847 20.9313C20.5158 20.9302 20.6412 20.8776 20.7339 20.7849C20.8266 20.6922 20.8792 20.5668 20.8804 20.4357C20.8815 20.3046 20.8311 20.1783 20.74 20.084V20.086ZM4.11303 11.02C4.11303 9.64344 4.52122 8.2978 5.286 7.15323C6.05077 6.00867 7.13777 5.11658 8.40955 4.5898C9.68132 4.06301 11.0807 3.92518 12.4309 4.19373C13.781 4.46229 15.0211 5.12516 15.9945 6.09854C16.9679 7.07191 17.6307 8.31206 17.8993 9.66217C18.1678 11.0123 18.03 12.4117 17.5032 13.6835C16.9764 14.9552 16.0844 16.0423 14.9398 16.807C13.7952 17.5718 12.4496 17.98 11.073 17.98C9.22777 17.9779 7.4587 17.2439 6.1539 15.9391C4.84911 14.6343 4.11514 12.8653 4.11303 11.02Z" fill="#7C6826"/>
</g>
</svg>
